<svg preserveAspectRatio="none" overflow="visible" style="display: block;" width="46" height="46" viewBox="0 0 46 46" fill="none" xmlns="http://www.w3.org/2000/svg">
<g id="f7:cart">
<path id="Vector" d="M16.4351 32.5688H38.9029C39.6528 32.5688 40.3075 31.9528 40.3075 31.1248C40.3075 30.2968 39.6528 29.6807 38.9029 29.6807H16.7621C15.6646 29.6807 14.9911 28.9102 14.8177 27.7364L14.5097 25.7148H38.9406C41.7516 25.7148 43.1956 23.9816 43.5998 21.229L45.14 11.0441C45.1813 10.8023 45.2071 10.5581 45.2172 10.313C45.2172 9.38893 44.5239 8.75314 43.4651 8.75314H12.0265L11.6602 6.30857C11.468 4.82589 10.9291 4.07429 8.96589 4.07429H2.20718C1.4375 4.07429 0.782821 4.7495 0.782821 5.52C0.782821 6.30857 1.4375 6.98296 2.208 6.98296H8.71454L11.7949 28.1216C12.1999 30.8553 13.6431 32.5688 16.4351 32.5688ZM41.9438 11.6602L40.5786 20.8824C40.4241 22.0759 39.7892 22.8078 38.6531 22.8078L14.0875 22.8267L12.4504 11.6602H41.9438ZM17.9564 41.9257C18.367 41.9291 18.7741 41.8508 19.154 41.6952C19.534 41.5397 19.8791 41.3101 20.1694 41.0198C20.4597 40.7295 20.6893 40.3843 20.8449 40.0043C21.0004 39.6244 21.0788 39.2173 21.0754 38.8068C21.0772 38.3966 20.9978 37.9902 20.8417 37.611C20.6857 37.2317 20.456 36.8872 20.166 36.5972C19.876 36.3072 19.5314 36.0775 19.1522 35.9214C18.7729 35.7654 18.3665 35.6859 17.9564 35.6878C16.2051 35.6878 14.8186 37.0744 14.8186 38.8068C14.8186 40.5589 16.2051 41.9257 17.9564 41.9257ZM35.9572 41.9257C37.7093 41.9257 39.0951 40.5589 39.0951 38.8068C39.0951 37.0735 37.7093 35.6878 35.9572 35.6878C34.2248 35.6878 32.8194 37.0744 32.8194 38.8068C32.8194 40.5589 34.2248 41.9257 35.9572 41.9257Z" fill="#323F37"/>
</g>
</svg>
