<svg preserveAspectRatio="none" overflow="visible" style="display: block;" width="72" height="72" viewBox="0 0 72 72" fill="none" xmlns="http://www.w3.org/2000/svg">
<g id="clarity:shield-check-line" clip-path="url(#clip0_0_6)">
<path id="Vector" d="M62.5 14.8C57.9685 13.5887 53.541 12.017 49.26 10.1C45.0489 8.27323 40.9837 6.12697 37.1 3.68L36 3L34.92 3.7C31.0363 6.14697 26.9711 8.29323 22.76 10.12C18.4719 12.0312 14.0378 13.5962 9.5 14.8L8 15.18V31.86C8 58.64 35.06 68.66 35.32 68.76L36 69L36.68 68.76C36.96 68.76 64 58.66 64 31.86V15.18L62.5 14.8ZM60 31.86C60 53.86 40 63.08 36 64.72C32 63.08 12 53.84 12 31.86V18.28C16.219 17.0674 20.3489 15.5638 24.36 13.78C28.372 12.0473 32.2611 10.0426 36 7.78C39.7389 10.0426 43.628 12.0473 47.64 13.78C51.6511 15.5638 55.781 17.0674 60 18.28V31.86Z" fill="#60756B"/>
<path id="Vector_2" d="M21.76 33.74C21.3774 33.4123 20.8852 33.2411 20.3819 33.2606C19.8785 33.28 19.4011 33.4887 19.0449 33.8449C18.6887 34.2011 18.48 34.6785 18.4606 35.1819C18.4411 35.6852 18.6123 36.1774 18.94 36.56L30.94 48.56L52.8 27.54C53.1819 27.1687 53.4007 26.6609 53.4082 26.1283C53.4157 25.5957 53.2113 25.0819 52.84 24.7C52.4687 24.3181 51.9609 24.0993 51.4283 24.0918C50.8957 24.0843 50.3819 24.2887 50 24.66L31.06 43.04L21.76 33.74Z" fill="#4A9372"/>
<g id="Vector_3">
</g>
</g>
<defs>
<clipPath id="clip0_0_6">
<rect width="72" height="72" fill="white"/>
</clipPath>
</defs>
</svg>
